<svg width="115" height="18" fill="none" xmlns="http://www.w3.org/2000/svg"><path d="M60.2 3.5V.8H49.5V17h3v-6.9h61.8V7.5H52.5v-4h7.7Z" fill="#fff"/><path d="M97.3 0v16.2h6.2c4.8 0 7.6-2.7 7.6-8 0-5.8-3.6-8.2-7.4-8.2h-6.4Zm3 2.7h2.6c3 0 5 1.6 5 5.6 0 4.5-2.1 5.2-5.6 5.2h-2V2.7Z" fill="#fff"/><path d="M78 8.6c0 4.5 3 8.5 7.7 8.5 5.9 0 7.9-5 7.9-8.7C93.6 4 90.7 0 85.8 0 81 0 78 3.8 78 8.6Zm3.1-.2c0-3.5 2-5.6 4.7-5.6 3.2 0 4.7 3 4.7 5.9 0 3.7-2.3 5.5-4.7 5.5-3.5 0-4.7-3.2-4.7-5.8ZM61.7 8.6c0 4.5 3 8.5 7.7 8.5 5.9 0 7.9-5 7.9-8.7C77.3 4 74.4 0 69.5 0c-4.7 0-7.8 3.8-7.8 8.6Zm3.1-.2c0-3.5 2-5.6 4.7-5.6 3.2 0 4.7 3 4.7 5.9 0 3.7-2.3 5.5-4.7 5.5-3.5 0-4.7-3.2-4.7-5.8Z" fill="#FFD25E"/><path d="M14.5 17 8.9.8H5.5L0 17h3.3l1-3.2h6l1 3.2h3.2Zm-5-5.8H5l2.3-7.5 2.2 7.5ZM30.2 17V.8h-3l.4 11.4L20.4.8h-2.7V17h3l-.2-11.4 7 11.4h2.7ZM46 .8h-3.4l-3.5 6.7L35.5.8h-3.4l5.4 9.8V17h3v-6.4L46 .8Z" fill="#fff"/><ellipse cx="69.5" cy="8.5" rx="5.5" ry="6.5" fill="#FFD25D"/><ellipse cx="85.5" cy="8.5" rx="5.5" ry="6.5" fill="#FFD25D"/></svg>